<svg width="23" height="20" viewBox="0 0 23 20" fill="none" xmlns="http://www.w3.org/2000/svg">
<path d="M10.9 20L15.45 8H17.55L22.1 20H20L18.95 16.95H14.1L13 20H10.9ZM14.7 15.2H18.3L16.55 10.25H16.45L14.7 15.2ZM3 17L1.6 15.6L6.65 10.55C6.01667 9.85 5.4625 9.125 4.9875 8.375C4.5125 7.625 4.1 6.83333 3.75 6H5.85C6.15 6.6 6.47083 7.14167 6.8125 7.625C7.15417 8.10833 7.56667 8.61667 8.05 9.15C8.78333 8.35 9.39167 7.52917 9.875 6.6875C10.3583 5.84583 10.7667 4.95 11.1 4H0V2H7V0H9V2H16V4H13.1C12.75 5.18333 12.275 6.33333 11.675 7.45C11.075 8.56667 10.3333 9.61667 9.45 10.6L11.85 13.05L11.1 15.1L8 12L3 17Z" fill="url(#paint0_linear_19_649)"/>
<defs>
<linearGradient id="paint0_linear_19_649" x1="11.05" y1="0" x2="11.05" y2="20" gradientUnits="userSpaceOnUse">
<stop stop-color="#D9C7E6"/>
<stop offset="1" stop-color="#C95AA1"/>
</linearGradient>
</defs>
</svg>
