<svg width="156" height="39" viewBox="0 0 156 39" fill="none" xmlns="http://www.w3.org/2000/svg">
<path d="M15.4641 4.01602V4.97602C14.4401 5.00802 13.6561 5.13602 13.1121 5.36002C12.6001 5.55202 12.2641 5.93602 12.1041 6.51202C11.9441 7.05602 11.8641 7.92002 11.8641 9.10402V32.912C11.8641 34.064 11.9441 34.928 12.1041 35.504C12.2961 36.08 12.6481 36.464 13.1601 36.656C13.6721 36.848 14.4401 36.976 15.4641 37.04V38C14.6001 37.936 13.5121 37.904 12.2001 37.904C10.8881 37.872 9.56008 37.856 8.21608 37.856C6.64808 37.856 5.19208 37.872 3.84808 37.904C2.53608 37.904 1.46408 37.936 0.63208 38V37.04C1.65608 36.976 2.42408 36.848 2.93608 36.656C3.44808 36.464 3.78408 36.08 3.94408 35.504C4.13608 34.928 4.23208 34.064 4.23208 32.912V9.10402C4.23208 7.92002 4.13608 7.05602 3.94408 6.51202C3.78408 5.93602 3.43208 5.55202 2.88808 5.36002C2.37608 5.13602 1.62408 5.00802 0.63208 4.97602V4.01602C1.46408 4.04802 2.53608 4.08002 3.84808 4.11202C5.19208 4.14402 6.64808 4.16002 8.21608 4.16002C9.56008 4.16002 10.8881 4.14402 12.2001 4.11202C13.5121 4.08002 14.6001 4.04802 15.4641 4.01602Z" fill="#141414"/>
<path d="M27.4217 12.512C28.7657 12.512 29.9337 12.688 30.9257 13.04C31.9497 13.36 32.6857 13.68 33.1337 14C34.2217 14.736 34.8937 14.256 35.1497 12.56H36.1577C36.0937 13.456 36.0457 14.56 36.0137 15.872C35.9817 17.152 35.9657 18.864 35.9657 21.008H34.9577C34.7977 19.824 34.4937 18.656 34.0457 17.504C33.5977 16.352 32.9417 15.408 32.0777 14.672C31.2457 13.936 30.1577 13.568 28.8137 13.568C27.8857 13.568 27.1017 13.84 26.4617 14.384C25.8217 14.896 25.5017 15.648 25.5017 16.64C25.5017 17.6 25.7897 18.448 26.3657 19.184C26.9417 19.888 27.6777 20.576 28.5737 21.248C29.5017 21.888 30.4617 22.576 31.4537 23.312C32.5097 24.112 33.4697 24.912 34.3337 25.712C35.1977 26.48 35.8857 27.328 36.3977 28.256C36.9097 29.184 37.1657 30.288 37.1657 31.568C37.1657 33.008 36.7497 34.272 35.9177 35.36C35.0857 36.416 33.9817 37.232 32.6057 37.808C31.2617 38.384 29.7577 38.672 28.0937 38.672C27.1337 38.672 26.2697 38.576 25.5017 38.384C24.7657 38.192 24.1257 37.952 23.5817 37.664C23.1657 37.472 22.7657 37.296 22.3817 37.136C22.0297 36.944 21.6937 36.784 21.3737 36.656C21.0537 36.56 20.7657 36.672 20.5097 36.992C20.2857 37.312 20.1097 37.76 19.9817 38.336H18.9737C19.0377 37.312 19.0857 36.064 19.1177 34.592C19.1497 33.12 19.1657 31.168 19.1657 28.736H20.1737C20.3657 30.464 20.7177 32 21.2297 33.344C21.7417 34.656 22.4297 35.696 23.2937 36.464C24.1897 37.2 25.3097 37.568 26.6537 37.568C27.1977 37.568 27.7257 37.456 28.2377 37.232C28.7497 37.008 29.1657 36.64 29.4857 36.128C29.8377 35.616 30.0137 34.96 30.0137 34.16C30.0137 32.752 29.5497 31.584 28.6217 30.656C27.7257 29.728 26.5737 28.72 25.1657 27.632C24.1417 26.8 23.1657 25.984 22.2377 25.184C21.3417 24.352 20.6057 23.456 20.0297 22.496C19.4537 21.504 19.1657 20.384 19.1657 19.136C19.1657 17.696 19.5497 16.48 20.3177 15.488C21.0857 14.496 22.0937 13.76 23.3417 13.28C24.6217 12.768 25.9817 12.512 27.4217 12.512Z" fill="#141414"/>
<path d="M46.7136 38.336C45.2736 38.336 44.0736 38.064 43.1136 37.52C42.1536 36.976 41.4496 36.256 41.0016 35.36C40.5536 34.432 40.3296 33.424 40.3296 32.336C40.3296 30.96 40.6336 29.84 41.2416 28.976C41.8816 28.112 42.6976 27.408 43.6896 26.864C44.6816 26.32 45.7216 25.872 46.8096 25.52C47.9296 25.168 48.9856 24.832 49.9776 24.512C51.0016 24.16 51.8176 23.76 52.4256 23.312C53.0656 22.832 53.3856 22.224 53.3856 21.488V17.744C53.3856 16.912 53.2416 16.176 52.9536 15.536C52.6976 14.864 52.2816 14.352 51.7056 14C51.1616 13.648 50.4416 13.472 49.5456 13.472C48.9056 13.472 48.2656 13.568 47.6256 13.76C46.9856 13.92 46.4576 14.208 46.0416 14.624C46.9376 14.944 47.6256 15.44 48.1056 16.112C48.6176 16.752 48.8736 17.488 48.8736 18.32C48.8736 19.408 48.4896 20.272 47.7216 20.912C46.9856 21.552 46.1056 21.872 45.0816 21.872C43.9296 21.872 43.0496 21.52 42.4416 20.816C41.8656 20.08 41.5776 19.2 41.5776 18.176C41.5776 17.248 41.8016 16.48 42.2496 15.872C42.7296 15.264 43.3856 14.688 44.2176 14.144C45.1136 13.632 46.1856 13.232 47.4336 12.944C48.7136 12.656 50.0896 12.512 51.5616 12.512C53.0336 12.512 54.3616 12.672 55.5456 12.992C56.7296 13.28 57.7216 13.824 58.5216 14.624C59.2576 15.36 59.7376 16.272 59.9616 17.36C60.1856 18.416 60.2976 19.76 60.2976 21.392V34.448C60.2976 35.248 60.3776 35.808 60.5376 36.128C60.6976 36.416 60.9696 36.56 61.3536 36.56C61.6416 36.56 61.9136 36.48 62.1696 36.32C62.4576 36.16 62.7616 35.968 63.0816 35.744L63.5616 36.56C62.8896 37.136 62.1056 37.584 61.2096 37.904C60.3456 38.192 59.3696 38.336 58.2816 38.336C57.0976 38.336 56.1536 38.176 55.4496 37.856C54.7456 37.504 54.2336 37.04 53.9136 36.464C53.6256 35.888 53.4816 35.216 53.4816 34.448C52.7136 35.664 51.7856 36.624 50.6976 37.328C49.6096 38 48.2816 38.336 46.7136 38.336ZM50.1216 35.264C50.7616 35.264 51.3376 35.12 51.8496 34.832C52.3936 34.512 52.9056 34 53.3856 33.296V23.456C53.0976 23.936 52.6976 24.368 52.1856 24.752C51.6736 25.136 51.1296 25.536 50.5536 25.952C49.9776 26.336 49.4176 26.768 48.8736 27.248C48.3616 27.728 47.9456 28.32 47.6256 29.024C47.3056 29.728 47.1456 30.576 47.1456 31.568C47.1456 32.816 47.4176 33.744 47.9616 34.352C48.5056 34.96 49.2256 35.264 50.1216 35.264Z" fill="#141414"/>
<path d="M81.3973 12.512C83.8933 12.512 85.9573 13.536 87.5893 15.584C89.2533 17.6 90.0853 20.72 90.0853 24.944C90.0853 28.272 89.5733 30.944 88.5493 32.96C87.5573 34.976 86.2293 36.432 84.5653 37.328C82.9013 38.224 81.0773 38.672 79.0933 38.672C77.7813 38.672 76.5653 38.448 75.4453 38C74.3253 37.552 73.3653 36.816 72.5653 35.792L73.2373 35.552C73.8133 36.256 74.4853 36.784 75.2533 37.136C76.0533 37.488 76.8373 37.664 77.6053 37.664C79.3653 37.664 80.6773 36.672 81.5413 34.688C82.4053 32.704 82.8373 29.68 82.8373 25.616C82.8373 22.864 82.6613 20.688 82.3093 19.088C81.9893 17.456 81.5093 16.304 80.8693 15.632C80.2293 14.928 79.4613 14.576 78.5653 14.576C77.4453 14.576 76.4213 15.04 75.4933 15.968C74.5653 16.864 74.0373 18.128 73.9093 19.76L73.6693 18.08C74.2453 16.256 75.2213 14.88 76.5973 13.952C77.9733 12.992 79.5733 12.512 81.3973 12.512ZM74.0533 0.464015V37.04C73.2533 36.912 72.4373 36.912 71.6053 37.04C70.7733 37.168 70.0053 37.392 69.3013 37.712C68.5973 38 68.0053 38.352 67.5253 38.768L66.8053 38.336C66.9333 37.888 67.0133 37.44 67.0453 36.992C67.1093 36.544 67.1413 36.096 67.1413 35.648V6.22402C67.1413 4.78402 66.9173 3.72802 66.4693 3.05602C66.0533 2.35202 65.2533 2.00002 64.0693 2.00002V0.992017C65.0933 1.08802 66.0853 1.13602 67.0453 1.13602C68.3573 1.13602 69.6053 1.08802 70.7893 0.992017C71.9733 0.864017 73.0613 0.688016 74.0533 0.464015Z" fill="#141414"/>
<path d="M105.442 12.512C108.258 12.512 110.466 13.344 112.066 15.008C113.666 16.672 114.466 19.392 114.466 23.168H98.6743L98.5783 22.256H108.418C108.45 20.688 108.354 19.248 108.13 17.936C107.906 16.592 107.554 15.52 107.074 14.72C106.594 13.92 105.954 13.52 105.154 13.52C104.034 13.52 103.074 14.224 102.274 15.632C101.506 17.04 101.042 19.376 100.882 22.64L101.026 22.928C100.994 23.312 100.962 23.712 100.93 24.128C100.93 24.544 100.93 24.976 100.93 25.424C100.93 27.632 101.234 29.424 101.842 30.8C102.482 32.176 103.282 33.184 104.242 33.824C105.202 34.432 106.178 34.736 107.17 34.736C107.842 34.736 108.53 34.64 109.234 34.448C109.97 34.224 110.706 33.84 111.442 33.296C112.178 32.72 112.866 31.92 113.506 30.896L114.37 31.184C113.986 32.4 113.378 33.584 112.546 34.736C111.714 35.888 110.658 36.832 109.378 37.568C108.098 38.304 106.562 38.672 104.77 38.672C102.594 38.672 100.674 38.208 99.0103 37.28C97.3463 36.352 96.0343 34.944 95.0743 33.056C94.1463 31.168 93.6823 28.768 93.6823 25.856C93.6823 22.88 94.1783 20.4 95.1703 18.416C96.1943 16.432 97.5863 14.96 99.3463 14C101.138 13.008 103.17 12.512 105.442 12.512Z" fill="#141414"/>
<path d="M127.038 0.416016V33.536C127.038 34.88 127.262 35.792 127.71 36.272C128.19 36.752 128.99 36.992 130.11 36.992V38C129.502 37.968 128.59 37.936 127.374 37.904C126.158 37.84 124.926 37.808 123.678 37.808C122.43 37.808 121.166 37.84 119.886 37.904C118.638 37.936 117.694 37.968 117.054 38V36.992C118.174 36.992 118.958 36.752 119.406 36.272C119.886 35.792 120.126 34.88 120.126 33.536V6.17602C120.126 4.73602 119.902 3.68002 119.454 3.00802C119.038 2.30402 118.238 1.95202 117.054 1.95202V0.944017C118.078 1.04002 119.07 1.08802 120.03 1.08802C121.342 1.08802 122.59 1.04002 123.774 0.944017C124.958 0.816017 126.046 0.640017 127.038 0.416016Z" fill="#141414"/>
<path d="M138.776 38.336C137.336 38.336 136.136 38.064 135.176 37.52C134.216 36.976 133.512 36.256 133.064 35.36C132.616 34.432 132.392 33.424 132.392 32.336C132.392 30.96 132.696 29.84 133.304 28.976C133.944 28.112 134.76 27.408 135.752 26.864C136.744 26.32 137.784 25.872 138.872 25.52C139.992 25.168 141.048 24.832 142.04 24.512C143.064 24.16 143.88 23.76 144.488 23.312C145.128 22.832 145.448 22.224 145.448 21.488V17.744C145.448 16.912 145.304 16.176 145.016 15.536C144.76 14.864 144.344 14.352 143.768 14C143.224 13.648 142.504 13.472 141.608 13.472C140.968 13.472 140.328 13.568 139.688 13.76C139.048 13.92 138.52 14.208 138.104 14.624C139 14.944 139.688 15.44 140.168 16.112C140.68 16.752 140.936 17.488 140.936 18.32C140.936 19.408 140.552 20.272 139.784 20.912C139.048 21.552 138.168 21.872 137.144 21.872C135.992 21.872 135.112 21.52 134.504 20.816C133.928 20.08 133.64 19.2 133.64 18.176C133.64 17.248 133.864 16.48 134.312 15.872C134.792 15.264 135.448 14.688 136.28 14.144C137.176 13.632 138.248 13.232 139.496 12.944C140.776 12.656 142.152 12.512 143.624 12.512C145.096 12.512 146.424 12.672 147.608 12.992C148.792 13.28 149.784 13.824 150.584 14.624C151.32 15.36 151.8 16.272 152.024 17.36C152.248 18.416 152.36 19.76 152.36 21.392V34.448C152.36 35.248 152.44 35.808 152.6 36.128C152.76 36.416 153.032 36.56 153.416 36.56C153.704 36.56 153.976 36.48 154.232 36.32C154.52 36.16 154.824 35.968 155.144 35.744L155.624 36.56C154.952 37.136 154.168 37.584 153.272 37.904C152.408 38.192 151.432 38.336 150.344 38.336C149.16 38.336 148.216 38.176 147.512 37.856C146.808 37.504 146.296 37.04 145.976 36.464C145.688 35.888 145.544 35.216 145.544 34.448C144.776 35.664 143.848 36.624 142.76 37.328C141.672 38 140.344 38.336 138.776 38.336ZM142.184 35.264C142.824 35.264 143.4 35.12 143.912 34.832C144.456 34.512 144.968 34 145.448 33.296V23.456C145.16 23.936 144.76 24.368 144.248 24.752C143.736 25.136 143.192 25.536 142.616 25.952C142.04 26.336 141.48 26.768 140.936 27.248C140.424 27.728 140.008 28.32 139.688 29.024C139.368 29.728 139.208 30.576 139.208 31.568C139.208 32.816 139.48 33.744 140.024 34.352C140.568 34.96 141.288 35.264 142.184 35.264Z" fill="#141414"/>
</svg>
